<svg version="1.1" id="Layer_1" xmlns="http://www.w3.org/2000/svg" xmlns:xlink="http://www.w3.org/1999/xlink" x="0px" y="0px"
	 width="100%" viewBox="0 0 496 496" enable-background="new 0 0 496 496" xml:space="preserve">
<path fill="none" stroke="none" 
	d="
M205.000122,128.638245 
	C241.998550,128.640076 278.497467,128.732269 314.994843,128.538666 
	C320.000946,128.512100 321.970306,129.855927 321.456635,134.979385 
	C321.162537,137.912857 321.742065,140.939926 321.986053,143.920120 
	C322.610077,151.541855 320.895538,157.980255 316.771576,164.989883 
	C309.401184,177.517609 300.030670,182.716583 285.845215,180.395828 
	C281.462799,179.678848 276.863770,180.302032 272.364105,180.281113 
	C266.267273,180.252762 264.428955,178.862167 261.996399,172.470718 
	C263.389069,171.163406 265.134857,171.732391 266.711487,171.722717 
	C276.377380,171.663391 286.043884,171.710678 295.709961,171.667618 
	C297.187805,171.661041 299.406006,171.934525 300.024414,171.121765 
	C305.055481,164.509460 312.371094,159.040024 312.665527,149.791916 
	C313.061829,137.344070 312.863770,137.335968 300.464111,137.337799 
	C260.799194,137.343658 221.134018,137.423141 181.469803,137.261734 
	C176.783279,137.242661 175.164154,138.367111 175.186737,143.327896 
	C175.377289,185.158554 175.371994,226.990738 175.204376,268.821564 
	C175.184906,273.679321 176.693069,275.090088 181.463577,275.023376 
	C201.124130,274.748260 220.789825,274.767365 240.453140,274.830231 
	C243.918930,274.841309 246.210373,273.915344 248.316971,270.885559 
	C271.134949,238.068008 294.123444,205.369064 317.073273,172.643250 
	C318.106812,171.169418 318.943390,169.495697 321.531891,168.234940 
	C321.985168,174.719910 323.852783,180.934616 319.956848,186.537201 
	C298.090118,217.983231 276.082001,249.330963 254.129639,280.717468 
	C252.948242,282.406555 251.750076,283.542297 249.323120,283.573547 
	C223.674866,283.903870 198.030991,284.602936 172.376160,284.296021 
	C166.048965,284.220337 165.893860,284.133789 165.893250,277.888367 
	C165.888580,230.557129 165.891144,183.225876 165.904770,135.894638 
	C165.906860,128.681580 165.938599,128.669159 173.002945,128.657837 
	C183.501984,128.641006 194.001068,128.643845 205.000122,128.638245 
z"/>

</svg>